<svg xmlns="http://www.w3.org/2000/svg" width="22" height="22" viewBox="0 0 22 22" fill="none">
<path fill-rule="evenodd" clip-rule="evenodd" d="M6.87293 18.3521C7.26368 18.3521 7.58127 18.6696 7.58127 19.0604C7.58127 19.4511 7.26368 19.7678 6.87293 19.7678C6.48219 19.7678 6.16553 19.4511 6.16553 19.0604C6.16553 18.6696 6.48219 18.3521 6.87293 18.3521Z" stroke="black" stroke-width="1.81818" stroke-linecap="round" stroke-linejoin="round"/>
<path fill-rule="evenodd" clip-rule="evenodd" d="M17.2918 18.3521C17.6826 18.3521 18.0002 18.6696 18.0002 19.0604C18.0002 19.4511 17.6826 19.7678 17.2918 19.7678C16.9011 19.7678 16.5835 19.4511 16.5835 19.0604C16.5835 18.6696 16.9011 18.3521 17.2918 18.3521Z" stroke="black" stroke-width="1.81818" stroke-linecap="round" stroke-linejoin="round"/>
<path d="M2.54639 3.00916L4.47231 3.34249L5.36398 13.9656C5.4362 14.8314 6.15935 15.4962 7.02787 15.4962H17.1316C17.9612 15.4962 18.6649 14.8869 18.7844 14.0647L19.6631 7.99249C19.7714 7.24341 19.1908 6.57304 18.4344 6.57304H4.78157" stroke="black" stroke-width="1.81818" stroke-linecap="round" stroke-linejoin="round"/>
<path d="M13.0796 9.99519H15.6472" stroke="black" stroke-width="1.81818" stroke-linecap="round" stroke-linejoin="round"/>
</svg>