<svg xmlns="http://www.w3.org/2000/svg" width="34" height="34" viewBox="0 0 34 34" fill="none">
<circle cx="17" cy="17" r="17" fill="url(#paint0_linear_740_2034)"/>
<path d="M16.9998 13.9825C14.976 13.9825 13.3633 15.6268 13.3633 17.619C13.3633 19.6428 14.976 21.2555 16.9998 21.2555C18.992 21.2555 20.6364 19.6428 20.6364 17.619C20.6364 15.6268 18.992 13.9825 16.9998 13.9825ZM16.9998 19.9907C15.7033 19.9907 14.6282 18.9471 14.6282 17.619C14.6282 16.3225 15.6717 15.279 16.9998 15.279C18.2963 15.279 19.3399 16.3225 19.3399 17.619C19.3399 18.9471 18.2963 19.9907 16.9998 19.9907ZM21.6167 13.856C21.6167 13.3817 21.2372 13.0022 20.7629 13.0022C20.2885 13.0022 19.9091 13.3817 19.9091 13.856C19.9091 14.3303 20.2885 14.7098 20.7629 14.7098C21.2372 14.7098 21.6167 14.3303 21.6167 13.856ZM24.0199 14.7098C23.9567 13.5714 23.7037 12.5595 22.8815 11.7373C22.0594 10.9151 21.0475 10.6622 19.9091 10.5989C18.739 10.5357 15.229 10.5357 14.059 10.5989C12.9206 10.6622 11.9403 10.9151 11.0865 11.7373C10.2643 12.5595 10.0114 13.5714 9.94813 14.7098C9.88488 15.8798 9.88488 19.3898 9.94813 20.5598C10.0114 21.6982 10.2643 22.6785 11.0865 23.5323C11.9403 24.3545 12.9206 24.6075 14.059 24.6707C15.229 24.734 18.739 24.734 19.9091 24.6707C21.0475 24.6075 22.0594 24.3545 22.8815 23.5323C23.7037 22.6785 23.9567 21.6982 24.0199 20.5598C24.0832 19.3898 24.0832 15.8798 24.0199 14.7098ZM22.5021 21.7931C22.2807 22.4255 21.7748 22.8999 21.1739 23.1529C20.2253 23.5323 18.0117 23.4375 16.9998 23.4375C15.9563 23.4375 13.7428 23.5323 12.8257 23.1529C12.1933 22.8999 11.719 22.4255 11.466 21.7931C11.0865 20.8761 11.1814 18.6625 11.1814 17.619C11.1814 16.6071 11.0865 14.3936 11.466 13.4449C11.719 12.8441 12.1933 12.3697 12.8257 12.1168C13.7428 11.7373 15.9563 11.8322 16.9998 11.8322C18.0117 11.8322 20.2253 11.7373 21.1739 12.1168C21.7748 12.3381 22.2491 12.8441 22.5021 13.4449C22.8815 14.3936 22.7867 16.6071 22.7867 17.619C22.7867 18.6625 22.8815 20.8761 22.5021 21.7931Z" fill="white"/>
<defs>
<linearGradient id="paint0_linear_740_2034" x1="22.1405" y1="59.3516" x2="70.4115" y2="11.7793" gradientUnits="userSpaceOnUse">
<stop stop-color="white"/>
<stop offset="0.147864" stop-color="#F6640E"/>
<stop offset="0.443974" stop-color="#BA03A7"/>
<stop offset="0.733337" stop-color="#6A01B9"/>
<stop offset="1" stop-color="#6B01B9"/>
</linearGradient>
</defs>
</svg>