<svg xmlns="http://www.w3.org/2000/svg" width="34" height="34" viewBox="0 0 34 34" fill="none">
<path d="M17 34C26.3888 34 34 26.3888 34 17C34 7.61116 26.3888 0 17 0C7.61116 0 0 7.61116 0 17C0 26.3888 7.61116 34 17 34Z" fill="url(#paint0_linear_740_2037)"/>
<path fill-rule="evenodd" clip-rule="evenodd" d="M7.69495 16.8209C12.6508 14.6617 15.9555 13.2383 17.609 12.5505C22.33 10.5869 23.311 10.2458 23.9504 10.2345C24.0911 10.232 24.4055 10.2669 24.6092 10.4321C24.7812 10.5717 24.8285 10.7602 24.8511 10.8925C24.8738 11.0248 24.902 11.3262 24.8796 11.5618C24.6237 14.2499 23.5167 20.7732 22.9536 23.7839C22.7153 25.0578 22.246 25.485 21.7918 25.5268C20.8045 25.6176 20.0549 24.8744 19.0987 24.2476C17.6025 23.2668 16.7572 22.6562 15.3049 21.6992C13.6265 20.5931 14.7145 19.9852 15.671 18.9917C15.9214 18.7317 20.2711 14.7753 20.3553 14.4164C20.3658 14.3715 20.3756 14.2042 20.2762 14.1158C20.1768 14.0275 20.0301 14.0577 19.9242 14.0817C19.7741 14.1158 17.3839 15.6956 12.7535 18.8213C12.075 19.2872 11.4605 19.5142 10.9099 19.5023C10.3029 19.4892 9.13533 19.1591 8.26734 18.8769C7.20272 18.5308 6.35657 18.3479 6.43025 17.7601C6.46863 17.454 6.8902 17.1409 7.69495 16.8209Z" fill="white"/>
<defs>
<linearGradient id="paint0_linear_740_2037" x1="17" y1="0" x2="17" y2="33.7478" gradientUnits="userSpaceOnUse">
<stop stop-color="#2AABEE"/>
<stop offset="1" stop-color="#229ED9"/>
</linearGradient>
</defs>
</svg>